<svg width="90" height="123" viewBox="0 0 90 123" fill="none" xmlns="http://www.w3.org/2000/svg">
<g clip-path="url(#clip0_325_112)">
<path d="M44.996 16.4477L77.8393 0.152604C78.9288 -0.387948 80.1526 0.591216 79.8691 1.77652L62.965 72.4117C62.7 73.5192 63.7636 74.4813 64.8351 74.1031L88.0828 65.8967C89.4488 65.4144 90.585 67.0359 89.6697 68.1612L45.4927 122.471C44.914 123.183 43.8275 123.175 43.2585 122.456L0.317902 68.1543C-0.578752 67.0204 0.568871 65.4184 1.92667 65.9086L24.5068 74.0595C25.5901 74.4506 26.6678 73.4661 26.3806 72.3482L8.247 1.80101C7.94202 0.614475 9.16235 -0.386213 10.2615 0.149127L43.7339 16.4523C44.1327 16.6465 44.5986 16.6448 44.996 16.4477Z" fill="#F7E8D6" stroke="#F7E8D6"/>
</g>
<defs>
<clipPath id="clip0_325_112">
<rect width="90" height="123" fill="white"/>
</clipPath>
</defs>
</svg>
