<svg width="268" height="311" viewBox="0 0 268 311" fill="none" xmlns="http://www.w3.org/2000/svg">
<path d="M60.5 153L156 90" stroke="black"/>
<path d="M37.0395 80.6919C32.7596 85.2409 27.5013 90.4981 26.573 96.9728C25.9134 101.573 49.5999 137.371 59.8895 151.676L155.735 89.4008C145.691 72.7856 125.328 40.8581 121.013 35.9445C116.037 30.2771 107.177 25.216 100.191 30.5875C98.5565 31.8445 97.363 33.4376 96.0747 35.0223C88.5881 30.1122 74.7962 28.1565 73.6846 40.1419C71.9517 37.8462 69.9419 35.4586 67.1358 34.5314C59.5695 32.0301 49.717 38.779 49.678 46.7994C43.5789 37.3264 37.6196 27.7569 31.1644 18.5162C27.971 13.9449 25.0591 8.54564 20.6471 5.01018C11.6015 -2.23904 2.26663 11.8459 3.0456 19.8786C3.80619 27.714 9.70251 36.666 13.8871 43.119C21.8819 55.4466 29.3629 68.1665 37.0395 80.6919Z" fill="#FFEDD7" stroke="#222222" stroke-width="4.58579" stroke-miterlimit="1.5" stroke-linecap="round" stroke-linejoin="round"/>
<path d="M36.9531 78.9999C41.8911 87.5012 48.4031 95.1137 53.3021 103.665" stroke="#222222" stroke-width="4.58579" stroke-miterlimit="1.5" stroke-linecap="round" stroke-linejoin="round"/>
<path d="M79.7638 140.425C71.8392 145.239 63.4478 149.214 56.4844 155.483C60.7317 162.533 64.8252 169.495 69.6285 176.494L173.796 108.507C169.24 101.495 163.728 93.4111 160.387 87.8823C140.312 99.4978 121.622 113.532 101.946 125.766C94.4205 130.446 87.3267 135.831 79.7638 140.425Z" fill="#F7E8D6" stroke="#222222" stroke-width="4.58579" stroke-miterlimit="1.5" stroke-linecap="round" stroke-linejoin="round"/>
<path fill-rule="evenodd" clip-rule="evenodd" d="M144.777 308.12C130.288 287.035 76.9185 208.809 63.8437 179.769C85.2415 168.124 104.219 152.726 124.809 139.889C143.96 127.949 163.643 116.285 182.314 103.576C186.688 115.268 249.671 207.957 264.82 236.363" fill="#1B9142"/>
<path d="M144.777 308.12C130.288 287.035 76.9185 208.809 63.8437 179.769C85.2415 168.124 104.219 152.726 124.809 139.889C143.96 127.949 163.643 116.285 182.314 103.576C186.688 115.268 249.671 207.957 264.82 236.363" stroke="#222222" stroke-width="4.58579" stroke-miterlimit="1.5" stroke-linecap="round" stroke-linejoin="round"/>
</svg>
